<svg width="47" height="52" viewBox="0 0 47 52" fill="none" xmlns="http://www.w3.org/2000/svg">
<circle cx="23.5" cy="28.5" r="23.5" fill="#BF1215"/>
<mask id="mask0_291_296" style="mask-type:alpha" maskUnits="userSpaceOnUse" x="1" y="0" width="46" height="52">
<rect x="1" width="46" height="52" fill="#D9D9D9"/>
</mask>
<g mask="url(#mask0_291_296)">
<path d="M12.1225 37.935C13.695 36.7325 15.4525 35.7841 17.395 35.0897C19.3375 34.3966 21.3725 34.05 23.5 34.05C25.6275 34.05 27.6625 34.3966 29.605 35.0897C31.5475 35.7841 33.305 36.7325 34.8775 37.935C35.9567 36.6708 36.7972 35.2371 37.399 33.6337C37.9997 32.0304 38.3 30.3192 38.3 28.5C38.3 24.3992 36.8589 20.907 33.9766 18.0234C31.093 15.1411 27.6008 13.7 23.5 13.7C19.3992 13.7 15.9076 15.1411 13.0253 18.0234C10.1418 20.907 8.7 24.3992 8.7 28.5C8.7 30.3192 9.00093 32.0304 9.6028 33.6337C10.2034 35.2371 11.0433 36.6708 12.1225 37.935ZM23.5 30.35C21.6808 30.35 20.1466 29.7259 18.8972 28.4778C17.6491 27.2284 17.025 25.6942 17.025 23.875C17.025 22.0558 17.6491 20.5216 18.8972 19.2722C20.1466 18.0241 21.6808 17.4 23.5 17.4C25.3192 17.4 26.8534 18.0241 28.1028 19.2722C29.3509 20.5216 29.975 22.0558 29.975 23.875C29.975 25.6942 29.3509 27.2284 28.1028 28.4778C26.8534 29.7259 25.3192 30.35 23.5 30.35ZM23.5 47C20.9408 47 18.5358 46.5141 16.285 45.5422C14.0342 44.5716 12.0763 43.2537 10.4113 41.5888C8.74625 39.9237 7.42843 37.9658 6.4578 35.715C5.48593 33.4642 5 31.0592 5 28.5C5 25.9408 5.48593 23.5358 6.4578 21.285C7.42843 19.0342 8.74625 17.0763 10.4113 15.4113C12.0763 13.7463 14.0342 12.4278 16.285 11.4559C18.5358 10.4853 20.9408 10 23.5 10C26.0592 10 28.4642 10.4853 30.715 11.4559C32.9658 12.4278 34.9238 13.7463 36.5888 15.4113C38.2538 17.0763 39.5716 19.0342 40.5422 21.285C41.5141 23.5358 42 25.9408 42 28.5C42 31.0592 41.5141 33.4642 40.5422 35.715C39.5716 37.9658 38.2538 39.9237 36.5888 41.5888C34.9238 43.2537 32.9658 44.5716 30.715 45.5422C28.4642 46.5141 26.0592 47 23.5 47ZM23.5 43.3C25.1342 43.3 26.6758 43.0613 28.125 42.584C29.5742 42.1055 30.9 41.4192 32.1025 40.525C30.9 39.6308 29.5742 38.9445 28.125 38.4659C26.6758 37.9886 25.1342 37.75 23.5 37.75C21.8658 37.75 20.3242 37.9886 18.875 38.4659C17.4258 38.9445 16.1 39.6308 14.8975 40.525C16.1 41.4192 17.4258 42.1055 18.875 42.584C20.3242 43.0613 21.8658 43.3 23.5 43.3ZM23.5 26.65C24.3017 26.65 24.9646 26.3879 25.4888 25.8637C26.0129 25.3396 26.275 24.6767 26.275 23.875C26.275 23.0733 26.0129 22.4104 25.4888 21.8862C24.9646 21.3621 24.3017 21.1 23.5 21.1C22.6983 21.1 22.0354 21.3621 21.5113 21.8862C20.9871 22.4104 20.725 23.0733 20.725 23.875C20.725 24.6767 20.9871 25.3396 21.5113 25.8637C22.0354 26.3879 22.6983 26.65 23.5 26.65Z" fill="white"/>
</g>
</svg>
