<svg width="252" height="244" viewBox="0 0 252 244" fill="none" xmlns="http://www.w3.org/2000/svg">
<path d="M219.164 121.999C220.436 115.99 220.69 105.278 220.69 105.278C220.69 105.278 224.255 103.972 224.255 103.189C224.255 102.405 237.492 84.901 237.492 84.901C237.492 84.901 242.583 75.4976 241.311 71.3166C240.039 67.1356 235.199 66.3554 233.672 65.8331C232.146 65.3109 203.635 42.0589 202.363 41.0144C201.091 39.9699 161.747 6.87216 130.629 6.85066C96.2754 6.82608 72.2904 13.3234 49.1285 38.1421C25.9666 62.9608 12.473 102.504 15.7805 130.929C19.0881 159.354 30.5433 175.814 32.0729 179.473C33.6024 183.131 35.3834 188.615 32.3273 197.238C29.2742 205.858 27.4902 213.695 29.783 215.787C32.0759 217.879 59.8204 228.588 77.1275 228.327C94.4346 228.066 107.928 225.977 113.274 217.354C118.62 208.73 117.602 201.419 117.602 201.419C117.602 201.419 196.658 241.973 216.024 221.882C231.804 205.511 228.751 182.056 228.751 182.056C228.751 182.056 227.677 163.16 222.304 157.268C214.725 148.958 211.019 147.604 211.274 143.684C211.528 139.764 217.892 128.007 219.164 121.999ZM160.25 47.4287C158.948 38.778 159.571 37.6751 161.496 32.9719C163.42 28.2687 169.811 27.7464 173.657 29.8385C177.504 31.9305 189.638 42.0589 197.274 47.8066C204.91 53.5543 215.434 63.44 214.584 65.0497C212.971 68.0972 209.409 67.5749 204.317 70.0141C199.226 72.4533 150.355 97.8802 141.189 102.058C132.027 106.239 131.686 105.192 130.629 102.058C129.573 98.9247 131.686 96.1353 136.098 93.0019C140.51 89.8685 157.536 66.7609 158.895 65.0497C160.25 63.3356 161.553 56.0795 160.25 47.4287ZM59.7336 39.5921C59.7336 39.5921 78.3577 19.2308 111.209 16.9514C142.997 14.7457 156.686 26.8217 157.479 28.2717C158.272 29.7217 158.496 31.4635 157.479 32.6248C156.461 33.786 152.839 32.6248 152.273 32.1609C151.708 31.697 129.195 16.7179 104.986 23.3381C80.7763 29.9552 62.9005 41.3339 60.7514 41.9145C58.6022 42.4951 56.3423 43.0419 59.7336 39.5921ZM29.0168 147.339C29.0168 147.339 23.587 113.726 29.0168 90.3876C34.4465 67.0496 54.4715 51.0261 66.0105 44.7561C77.5496 38.4861 71.7815 45.4534 71.7815 46.8451C71.7815 48.2397 59.9043 71.4026 54.9803 84.1146C50.0594 96.8296 48.5328 127.86 48.5328 127.86C48.5328 127.86 45.1385 128.874 43.6119 129.221C42.0853 129.568 39.0292 130.44 36.6556 131.66C34.2819 132.88 32.7523 138.799 32.7523 140.019C32.7523 141.238 29.0168 147.339 29.0168 147.339ZM56.001 141.767C56.001 141.767 60.922 136.541 60.4131 134.277C59.9043 132.013 53.795 130.01 53.795 130.01L54.8127 125.307C55.4054 125.221 69.6623 128.007 68.6416 134.016C67.6209 140.025 60.919 144.9 60.919 144.9L56.001 141.767ZM59.2248 158.921C58.5453 168.936 48.024 169.111 46.1592 169.633C44.2944 170.155 42.5942 170.502 42.5942 170.502C42.5942 170.502 41.7471 163.188 42.5942 159.529C43.4413 155.87 46.1592 147.336 46.1592 147.336C46.1592 147.336 59.9043 148.906 59.2248 158.921ZM35.4672 157.44C34.2789 156.046 33.0906 152.215 33.5994 150.823C33.5994 150.823 34.9584 150.301 35.4672 148.906C35.9761 147.512 36.9938 141.592 36.9938 140.197C36.9938 138.802 41.7441 132.185 43.2737 133.058C44.8032 133.93 42.9354 140.197 42.0854 141.592C41.2383 142.986 37.6733 159.529 37.6733 159.529C37.6733 159.529 36.6556 158.835 35.4672 157.44ZM109.625 161.621C108.946 177.992 110.643 197.149 109.964 199.935C109.284 202.722 106.231 197.846 103.175 199.935C100.122 202.024 102.837 210.733 101.139 212.125C99.4423 213.52 103.175 219.787 92.3153 219.092C81.4558 218.398 72.9699 217.003 68.896 217.35C64.8222 217.698 64.1457 218.502 63.125 219.144C62.1073 219.787 39.7057 216.653 38.688 213.169C37.6703 209.686 43.4383 188.09 43.4383 182.517C43.4383 176.944 43.4383 174.855 43.4383 174.855C43.4383 174.855 60.0689 173.114 64.1427 164.404C68.2166 155.695 64.3971 148.381 64.3971 147.512C64.3971 146.642 73.6284 142.12 73.5595 133.752C73.4757 123.215 61.7272 120.287 57.2672 118.773C57.2672 118.773 57.351 95.4349 65.1574 73.1414C72.9639 50.8479 85.1824 40.0498 87.8973 37.6137C90.6122 35.1776 104.866 25.2919 124.212 28.6649C143.557 32.038 150.346 40.7471 151.702 48.4118C153.061 56.0734 154.417 66.1772 138.127 84.987C121.835 103.797 121.497 106.236 124.553 109.717C127.609 113.197 145.595 102.749 145.595 102.749C145.595 102.749 202.201 74.8525 214.626 72.7789C227.051 70.7053 228.748 71.3689 230.104 72.7789C231.46 74.189 227.051 72.7943 218.224 75.2334C209.4 77.6726 163.92 101.011 151.025 107.628C138.127 114.245 126.25 120.515 121.838 126.438C117.429 132.363 110.302 145.251 109.625 161.621ZM114.885 175.728C112.849 171.2 116.582 169.633 116.582 169.633C116.582 169.633 118.617 174.336 119.467 175.381C120.314 176.425 121.844 178.643 121.844 178.643C121.844 178.643 116.92 180.256 114.885 175.728ZM220.945 185.481C221.792 187.57 222.642 196.28 220.945 205.161C219.248 214.042 212.121 221.356 186.666 220.834C161.211 220.312 128.291 196.799 123.2 193.49C118.108 190.182 115.615 186.148 116.92 185.478C120.994 183.389 139.83 192.618 164.8 195.754C189.773 198.888 200.411 194.012 205.503 192.446C210.594 190.879 220.098 183.393 220.945 185.481ZM197.867 185.116C197.867 185.116 203.805 173.117 205.673 171.722C207.541 170.327 208.559 170.502 208.559 170.502C208.559 170.502 212.633 174.508 212.633 176.597C212.633 178.686 211.953 183.531 207.373 185.113C202.788 186.701 197.867 185.116 197.867 185.116ZM204.994 160.924C206.353 161.446 208.218 163.885 209.235 160.924C210.253 157.962 207.367 154.132 208.897 154.307C210.424 154.482 215.443 160.402 214.629 163.363C213.818 166.324 214.156 166.324 212.288 166.324C210.421 166.324 202.617 167.544 199.561 171.897C196.508 176.25 194.978 185.829 192.434 186.876C189.89 187.921 173.259 190.882 152.217 186.876C131.174 182.87 125.235 180.259 125.235 180.259L128.399 175.906C128.399 175.906 122.35 170.856 121.841 167.894C121.332 164.933 122.35 165.455 135.757 170.505C149.163 175.556 168.168 176.775 174.956 171.203C181.745 165.63 185.816 158.488 187.513 159.535C189.21 160.58 194.469 167.372 194.469 167.372C194.469 167.372 196.167 169.114 198.373 167.547C200.579 165.98 200.749 164.936 200.749 164.936C200.749 164.936 194.131 154.485 192.096 153.093C190.06 151.699 187.854 150.654 183.951 153.963C180.048 157.271 176.315 166.328 162.738 168.244C149.163 170.161 136.436 163.716 132.533 162.15C128.63 160.583 114.885 158.927 114.885 158.927C114.885 158.927 118.108 140.569 124.047 132.984C129.986 125.399 141.525 116.865 150.858 111.64C160.191 106.414 204.311 83.7736 205.67 84.1238C207.029 84.4709 208.215 84.471 208.723 85.8656C209.232 87.2603 214.153 100.147 210.591 119.479C207.029 138.812 204.144 141.251 203.635 143.862C203.126 146.473 203.126 146.473 203.126 146.473C203.126 146.473 198.714 145.604 197.696 147.343C196.679 149.081 203.635 160.402 204.994 160.924Z" fill="white"/>
<path d="M51.8229 178.52C49.105 179.141 50.1258 191.06 48.9374 192.627C47.7491 194.194 48.0903 195.066 48.0903 195.066C48.0903 195.066 87.6284 200.639 88.8167 199.072C90.005 197.505 88.8167 194.369 88.8167 194.369C88.8167 194.369 56.4056 177.476 51.8229 178.52ZM53.8584 191.583C53.6877 189.666 53.6877 185.66 55.7261 184.268L77.4483 194.719C77.4483 194.716 54.029 193.496 53.8584 191.583Z" fill="white"/>
<path d="M53.3699 199.779C53.3699 199.779 51.8284 200.894 51.1579 201.069C50.4844 201.244 50.3407 202.636 50.3407 202.636C50.3407 202.636 49.9785 204.03 54.22 204.552C58.4614 205.075 79.5041 207.514 79.5041 207.514C79.5041 207.514 79.6747 206.817 80.863 206.644C82.0514 206.469 82.8985 205.425 82.0514 204.38C81.2013 203.333 53.3699 199.779 53.3699 199.779Z" fill="white"/>
<path d="M41.9145 155.873C41.9145 155.873 41.3218 155.787 41.1512 156.571C40.9806 157.354 42.2557 161.185 43.441 161.882C44.6294 162.58 58.0362 162.49 58.0362 162.49C58.0362 162.49 61.0055 179.473 61.7688 182.17C62.5321 184.87 63.7204 191.923 64.5675 193.143C65.4146 194.363 68.8957 194.273 68.8957 194.273C68.8957 194.273 64.6543 171.894 64.5675 169.022C64.4837 166.149 63.9748 160.14 63.9748 160.14C63.9748 160.14 63.8042 157.529 62.3615 157.007C60.9217 156.485 41.9145 155.873 41.9145 155.873Z" fill="#E00106"/>
<path d="M88.3285 157.179C87.9783 156.46 71.5273 156.571 71.5273 156.571C71.5273 156.571 70.8478 156.571 70.5096 156.875C70.1713 157.179 72.545 174.333 72.545 174.333C72.545 174.333 72.6288 175.292 73.1376 175.728C73.6465 176.164 74.2422 176.336 74.2422 176.336C74.2422 176.336 84.0002 174.508 81.9648 183.128C79.9294 191.748 76.4482 189.659 76.4482 189.659L74.1584 187.918C74.1584 187.918 73.6495 187.656 73.4789 188.265C73.3083 188.873 73.6495 192.532 73.6495 192.532C73.6495 192.532 73.3951 192.618 73.6495 192.968C73.9039 193.315 78.7919 194.971 79.4025 194.971C80.0132 194.971 83.2369 194.624 84.8503 186.351C86.4637 178.078 86.1224 173.55 83.5782 171.983C81.0339 170.416 76.3674 170.939 76.3674 170.939L75.0084 162.143L86.2931 162.666C86.2931 162.666 86.8857 162.752 87.3108 162.229C87.7358 161.707 88.3285 158.31 88.3285 158.31C88.3285 158.31 88.7505 158.052 88.3285 157.179Z" fill="#E00106"/>
<path d="M114.636 159.566C113.439 154.039 108.35 153.785 104.618 155.155C97.6044 157.729 92.1447 166.761 89.2592 177.123C86.4515 187.211 85.329 193.616 88.5139 194.974C93.8958 197.266 104.609 182.591 107.928 177.878C110.056 174.858 115.989 165.802 114.636 159.566ZM104.534 173.639C102.753 176.339 93.333 191.054 91.3814 189.401C89.4298 187.745 95.7097 170.155 98.8197 166.241C102.522 161.581 105.465 161.621 106.653 161.971C107.841 162.322 107.925 164.321 107.925 164.321C108.012 166.672 106.315 170.939 104.534 173.639Z" fill="#E00106"/>
</svg>
