<svg width="59" height="58" viewBox="0 0 59 58" fill="none" xmlns="http://www.w3.org/2000/svg">
<path d="M52.6606 29.9991C52.9837 28.4723 53.0483 25.7504 53.0483 25.7504C53.0483 25.7504 53.9537 25.4186 53.9537 25.2196C53.9537 25.0205 57.3152 20.5727 57.3152 20.5727C57.3152 20.5727 58.6083 18.1833 58.2852 17.121C57.9622 16.0586 56.7329 15.8603 56.3452 15.7276C55.9575 15.5949 48.7167 9.6866 48.3936 9.4212C48.0705 9.1558 38.0785 0.745716 30.1755 0.740252C21.4508 0.734007 15.3594 2.38496 9.47697 8.69135C3.59459 14.9977 0.167632 25.0455 1.00765 32.2683C1.84766 39.4911 4.75693 43.6735 5.14538 44.6032C5.53384 45.5329 5.98616 46.9263 5.21 49.1174C4.4346 51.3077 3.98153 53.299 4.56384 53.8306C5.14614 54.3622 12.1924 57.0833 16.5878 57.017C20.9833 56.9506 24.4102 56.4198 25.7679 54.2287C27.1256 52.0376 26.8672 50.1798 26.8672 50.1798C26.8672 50.1798 46.9447 60.4843 51.8631 55.3793C55.8709 51.2195 55.0955 45.2597 55.0955 45.2597C55.0955 45.2597 54.8226 40.4583 53.458 38.9611C51.5332 36.8496 50.5921 36.5054 50.6567 35.5093C50.7213 34.5133 52.3375 31.526 52.6606 29.9991ZM37.6984 11.0511C37.3677 8.85293 37.5259 8.5727 38.0147 7.37762C38.5035 6.18253 40.1265 6.04983 41.1033 6.58141C42.0802 7.113 45.162 9.6866 47.1013 11.1471C49.0405 12.6076 51.7134 15.1195 51.4975 15.5285C51.0877 16.3029 50.1831 16.1702 48.89 16.79C47.5969 17.4098 35.1852 23.8707 32.8575 24.9323C30.5306 25.9947 30.4439 25.7285 30.1755 24.9323C29.9072 24.1361 30.4439 23.4273 31.5644 22.6311C32.6849 21.8349 37.0089 15.9633 37.3541 15.5285C37.6984 15.093 38.0291 13.2492 37.6984 11.0511ZM12.1703 9.05979C12.1703 9.05979 16.9003 3.88603 25.2434 3.30683C33.3167 2.74637 36.793 5.81487 36.9945 6.18331C37.1959 6.55175 37.2529 6.99435 36.9945 7.28941C36.736 7.58447 35.8162 7.28941 35.6725 7.17154C35.5288 7.05367 29.8114 3.24751 23.663 4.92968C17.5145 6.61108 12.9746 9.50239 12.4288 9.64992C11.883 9.79745 11.309 9.93639 12.1703 9.05979ZM4.36923 36.4382C4.36923 36.4382 2.99023 27.897 4.36923 21.9669C5.74822 16.0367 10.8339 11.9651 13.7645 10.372C16.695 8.77878 15.2301 10.5492 15.2301 10.9028C15.2301 11.2572 12.2137 17.1428 10.9632 20.3729C9.71339 23.6038 9.32569 31.4885 9.32569 31.4885C9.32569 31.4885 8.46363 31.7461 8.07593 31.8343C7.68823 31.9225 6.91208 32.1442 6.30924 32.4541C5.70641 32.764 5.31795 34.2682 5.31795 34.5781C5.31795 34.888 4.36923 36.4382 4.36923 36.4382ZM11.2224 35.0222C11.2224 35.0222 12.4721 33.6945 12.3429 33.1192C12.2137 32.5439 10.6621 32.0349 10.6621 32.0349L10.9206 30.8398C11.0711 30.818 14.6919 31.526 14.4327 33.0528C14.1735 34.5797 12.4714 35.8184 12.4714 35.8184L11.2224 35.0222ZM12.0411 39.3811C11.8685 41.9258 9.19646 41.9703 8.72286 42.103C8.24926 42.2357 7.81747 42.3239 7.81747 42.3239C7.81747 42.3239 7.60233 40.4653 7.81747 39.5356C8.0326 38.6059 8.72286 36.4375 8.72286 36.4375C8.72286 36.4375 12.2137 36.8363 12.0411 39.3811ZM6.00744 39.0048C5.70565 38.6504 5.40385 37.677 5.53308 37.3234C5.53308 37.3234 5.87821 37.1907 6.00744 36.8363C6.13668 36.4819 6.39514 34.9777 6.39514 34.6234C6.39514 34.269 7.60157 32.5876 7.99003 32.8093C8.37849 33.031 7.90413 34.6234 7.68823 34.9777C7.4731 35.3321 6.56771 39.5356 6.56771 39.5356C6.56771 39.5356 6.30924 39.3592 6.00744 39.0048ZM24.8413 40.0672C24.6687 44.227 25.0997 49.0947 24.9272 49.8027C24.7546 50.5107 23.9792 49.2719 23.203 49.8027C22.4276 50.3335 23.1171 52.5465 22.6861 52.9001C22.2551 53.2545 23.203 54.8469 20.4451 54.6705C17.6871 54.4941 15.5319 54.1397 14.4973 54.2279C13.4627 54.3161 13.2909 54.5206 13.0316 54.6838C12.7732 54.8469 7.08388 54.0507 6.82541 53.1655C6.56695 52.2803 8.03184 46.7928 8.03184 45.3768C8.03184 43.9608 8.03184 43.43 8.03184 43.43C8.03184 43.43 12.2555 42.9874 13.2901 40.7744C14.3247 38.5614 13.3547 36.7029 13.3547 36.4819C13.3547 36.261 15.6992 35.112 15.6817 32.9857C15.6604 30.3083 12.6766 29.5644 11.5439 29.1795C11.5439 29.1795 11.5652 23.2494 13.5478 17.5846C15.5304 11.9199 18.6335 9.1761 19.323 8.55709C20.0125 7.93808 23.6326 5.42614 28.5457 6.28323C33.4588 7.14032 35.1829 9.35329 35.5273 11.3009C35.8724 13.2477 36.2168 15.815 32.0798 20.5946C27.9421 25.3741 27.8562 25.9939 28.6323 26.8783C29.4085 27.7627 33.9765 25.108 33.9765 25.108C33.9765 25.108 48.3526 18.0194 51.5081 17.4925C54.6637 16.9656 55.0947 17.1342 55.4391 17.4925C55.7834 17.8508 54.6637 17.4964 52.4219 18.1162C50.1808 18.736 38.6304 24.6661 35.3555 26.3475C32.0798 28.0289 29.0634 29.6221 27.9429 31.1271C26.8231 32.6329 25.0131 35.9074 24.8413 40.0672ZM26.1769 43.6517C25.66 42.5011 26.608 42.103 26.608 42.103C26.608 42.103 27.1249 43.2981 27.3408 43.5635C27.5559 43.8289 27.9444 44.3925 27.9444 44.3925C27.9444 44.3925 26.6939 44.8023 26.1769 43.6517ZM53.1129 46.1301C53.328 46.6609 53.5439 48.8738 53.1129 51.1305C52.6819 53.3872 50.8718 55.2458 44.4071 55.1131C37.9424 54.9804 29.5818 49.0057 28.2887 48.1651C26.9956 47.3244 26.3624 46.2994 26.6939 46.1293C27.7285 45.5985 32.5124 47.9434 38.8539 48.7403C45.1962 49.5366 47.8979 48.2978 49.191 47.8997C50.4841 47.5016 52.8978 45.5993 53.1129 46.1301ZM47.2518 46.0372C47.2518 46.0372 48.76 42.9882 49.2344 42.6338C49.7087 42.2794 49.9672 42.3239 49.9672 42.3239C49.9672 42.3239 51.0018 43.3418 51.0018 43.8726C51.0018 44.4034 50.8293 45.6344 49.6662 46.0364C48.5015 46.44 47.2518 46.0372 47.2518 46.0372ZM49.0618 39.89C49.4069 40.0227 49.8805 40.6425 50.139 39.89C50.3975 39.1375 49.6646 38.1641 50.0531 38.2086C50.4408 38.2531 51.7156 39.7573 51.5089 40.5098C51.3029 41.2623 51.3888 41.2623 50.9144 41.2623C50.44 41.2623 48.4582 41.5722 47.6821 42.6783C46.9067 43.7844 46.5182 46.2183 45.872 46.4844C45.2259 46.7498 41.0022 47.5023 35.6581 46.4844C30.3139 45.4666 28.8057 44.8031 28.8057 44.8031L29.6092 43.697C29.6092 43.697 28.0728 42.4137 27.9436 41.6612C27.8144 40.9087 28.0728 41.0414 31.4778 42.3247C34.8827 43.608 39.7091 43.9179 41.4333 42.5019C43.1574 41.0859 44.1912 39.271 44.6223 39.5372C45.0533 39.8026 46.389 41.5285 46.389 41.5285C46.389 41.5285 46.82 41.9711 47.3803 41.573C47.9405 41.1749 47.9839 40.9095 47.9839 40.9095C47.9839 40.9095 46.3031 38.2539 45.7861 37.9003C45.2692 37.5459 44.7089 37.2805 43.7176 38.1212C42.7263 38.9619 41.7784 41.2631 38.3301 41.7502C34.8827 42.2372 31.6503 40.5996 30.659 40.2015C29.6677 39.8034 26.1769 39.3826 26.1769 39.3826C26.1769 39.3826 26.9957 34.7178 28.5039 32.7905C30.0121 30.8633 32.9426 28.6948 35.3129 27.367C37.6832 26.0392 48.8885 20.2862 49.2336 20.3752C49.5787 20.4634 49.8798 20.4634 50.009 20.8178C50.1382 21.1722 51.388 24.4468 50.4834 29.3591C49.5787 34.2713 48.8459 34.8911 48.7167 35.5546C48.5874 36.2181 48.5874 36.2181 48.5874 36.2181C48.5874 36.2181 47.4669 35.9972 47.2085 36.439C46.95 36.8808 48.7167 39.7573 49.0618 39.89Z" fill="#39849A"/>
<path d="M10.1607 44.3614C9.47041 44.5191 9.72964 47.5478 9.42784 47.9459C9.12604 48.344 9.2127 48.5657 9.2127 48.5657C9.2127 48.5657 19.2541 49.9817 19.5559 49.5836C19.8577 49.1855 19.5559 48.3885 19.5559 48.3885C19.5559 48.3885 11.3245 44.096 10.1607 44.3614ZM10.6776 47.6805C10.6343 47.1934 10.6343 46.1755 11.152 45.8219L16.6687 48.4775C16.6687 48.4767 10.7209 48.1668 10.6776 47.6805Z" fill="#39849A"/>
<path d="M10.5545 49.7627C10.5545 49.7627 10.163 50.0461 9.99269 50.0905C9.82165 50.135 9.78516 50.4886 9.78516 50.4886C9.78516 50.4886 9.69318 50.843 10.7704 50.9757C11.8476 51.1084 17.1917 51.7282 17.1917 51.7282C17.1917 51.7282 17.2351 51.551 17.5369 51.5073C17.8387 51.4628 18.0538 51.1974 17.8387 50.932C17.6228 50.6658 10.5545 49.7627 10.5545 49.7627Z" fill="#39849A"/>
</svg>
