<svg width="25" height="26" viewBox="0 0 25 26" fill="none" xmlns="http://www.w3.org/2000/svg">
<path d="M22 12.6512C22 9.91014 21.0659 7.58465 19.1978 5.67479C17.3305 3.76585 15.0563 2.81139 12.375 2.81139V0C14.0938 0 15.7039 0.333618 17.2054 1.00085C18.706 1.66903 20.0122 2.57101 21.1241 3.70681C22.2351 4.84355 23.1174 6.17896 23.771 7.71304C24.4237 9.24806 24.75 10.8941 24.75 12.6512H22ZM16.5 12.6512C16.5 11.4798 16.099 10.4841 15.2969 9.66414C14.4948 8.84415 13.5208 8.43416 12.375 8.43416V5.62277C14.2771 5.62277 15.8987 6.30782 17.2397 7.6779C18.5799 9.04892 19.25 10.7067 19.25 12.6512H16.5ZM23.3063 25.3025C20.35 25.3025 17.4685 24.6287 14.6616 23.2811C11.8539 21.9344 9.36742 20.1539 7.20225 17.9395C5.03617 15.726 3.2945 13.184 1.97725 10.3136C0.659084 7.44408 0 4.49822 0 1.47598C0 1.05427 0.1375 0.702847 0.4125 0.421708C0.6875 0.140569 1.03125 0 1.44375 0H7.0125C7.33333 0 7.61979 0.105427 7.87188 0.316281C8.12396 0.527135 8.27292 0.79656 8.31875 1.12455L9.2125 6.04448C9.25833 6.37248 9.25283 6.67095 9.196 6.93991C9.13825 7.2098 9.00625 7.45018 8.8 7.66103L5.46562 11.105C6.42812 12.7918 7.63721 14.3732 9.09287 15.8492C10.5476 17.3252 12.1458 18.602 13.8875 19.6797L17.1187 16.3763C17.325 16.1655 17.5945 16.0071 17.9272 15.9012C18.2591 15.7962 18.5854 15.7672 18.9062 15.8141L23.65 16.798C23.9708 16.8683 24.2344 17.0262 24.4406 17.2718C24.6469 17.5182 24.75 17.8055 24.75 18.1334V23.8265C24.75 24.2482 24.6125 24.5996 24.3375 24.8808C24.0625 25.1619 23.7188 25.3025 23.3063 25.3025ZM4.15938 8.43416L6.42813 6.11477L5.84375 2.81139H2.78438C2.89896 3.77194 3.05937 4.72079 3.26562 5.65792C3.47188 6.59505 3.76979 7.52046 4.15938 8.43416ZM16.4656 21.0151C17.3594 21.4134 18.2705 21.7297 19.1991 21.964C20.1268 22.1982 21.0604 22.3505 22 22.4208V19.3283L18.7687 18.6606L16.4656 21.0151Z" fill="white"/>
</svg>
