<svg width="124" height="124" viewBox="0 0 124 124" fill="none" xmlns="http://www.w3.org/2000/svg">
<g filter="url(#filter0_d_520_3)">
<circle cx="62" cy="57" r="56" fill="#469FB8"/>
</g>
<mask id="mask0_520_3" style="mask-type:alpha" maskUnits="userSpaceOnUse" x="18" y="15" width="86" height="86">
<rect x="18" y="15" width="86" height="86" fill="#D9D9D9"/>
</mask>
<g mask="url(#mask0_520_3)">
<path d="M46.6667 37.9333L35.9167 27.1833L40.9333 22.1667L51.6833 32.9167L46.6667 37.9333ZM75.3333 37.9333L70.3167 32.9167L81.0667 22.1667L86.0833 27.1833L75.3333 37.9333ZM57.4167 32.9167V15H64.5833V32.9167H57.4167ZM32.3333 101C31.3181 101 30.4676 100.656 29.782 99.968C29.094 99.2824 28.75 98.4319 28.75 97.4167V68.75L36.275 47.25C36.6333 46.175 37.2759 45.309 38.2028 44.6521C39.1273 43.9951 40.1569 43.6667 41.2917 43.6667H80.7083C81.8431 43.6667 82.8739 43.9951 83.8008 44.6521C84.7253 45.309 85.3667 46.175 85.725 47.25L93.25 68.75V97.4167C93.25 98.4319 92.906 99.2824 92.218 99.968C91.5324 100.656 90.6819 101 89.6667 101H86.0833C85.0681 101 84.2176 100.656 83.532 99.968C82.844 99.2824 82.5 98.4319 82.5 97.4167V93.8333H39.5V97.4167C39.5 98.4319 39.1572 99.2824 38.4716 99.968C37.7836 100.656 36.9319 101 35.9167 101H32.3333ZM38.7833 61.5833H83.2167L79.4542 50.8333H42.5458L38.7833 61.5833ZM44.875 83.0833C46.3681 83.0833 47.6366 82.5602 48.6805 81.5138C49.7268 80.4699 50.25 79.2014 50.25 77.7083C50.25 76.2153 49.7268 74.9468 48.6805 73.9028C47.6366 72.8565 46.3681 72.3333 44.875 72.3333C43.3819 72.3333 42.1134 72.8565 41.0695 73.9028C40.0232 74.9468 39.5 76.2153 39.5 77.7083C39.5 79.2014 40.0232 80.4699 41.0695 81.5138C42.1134 82.5602 43.3819 83.0833 44.875 83.0833ZM77.125 83.0833C78.6181 83.0833 79.8866 82.5602 80.9305 81.5138C81.9768 80.4699 82.5 79.2014 82.5 77.7083C82.5 76.2153 81.9768 74.9468 80.9305 73.9028C79.8866 72.8565 78.6181 72.3333 77.125 72.3333C75.6319 72.3333 74.3634 72.8565 73.3195 73.9028C72.2732 74.9468 71.75 76.2153 71.75 77.7083C71.75 79.2014 72.2732 80.4699 73.3195 81.5138C74.3634 82.5602 75.6319 83.0833 77.125 83.0833ZM35.9167 86.6667H86.0833V68.75H35.9167V86.6667Z" fill="white"/>
</g>
<defs>
<filter id="filter0_d_520_3" x="0" y="0" width="124" height="124" filterUnits="userSpaceOnUse" color-interpolation-filters="sRGB">
<feFlood flood-opacity="0" result="BackgroundImageFix"/>
<feColorMatrix in="SourceAlpha" type="matrix" values="0 0 0 0 0 0 0 0 0 0 0 0 0 0 0 0 0 0 127 0" result="hardAlpha"/>
<feOffset dy="5"/>
<feGaussianBlur stdDeviation="3"/>
<feComposite in2="hardAlpha" operator="out"/>
<feColorMatrix type="matrix" values="0 0 0 0 0 0 0 0 0 0 0 0 0 0 0 0 0 0 0.1 0"/>
<feBlend mode="normal" in2="BackgroundImageFix" result="effect1_dropShadow_520_3"/>
<feBlend mode="normal" in="SourceGraphic" in2="effect1_dropShadow_520_3" result="shape"/>
</filter>
</defs>
</svg>
