<svg width="124" height="124" viewBox="0 0 124 124" fill="none" xmlns="http://www.w3.org/2000/svg">
<g filter="url(#filter0_d_520_4)">
<circle cx="62" cy="57" r="56" fill="#469FB8"/>
</g>
<mask id="mask0_520_4" style="mask-type:alpha" maskUnits="userSpaceOnUse" x="17" y="15" width="86" height="86">
<rect x="17" y="15" width="86" height="86" fill="#D9D9D9"/>
</mask>
<g mask="url(#mask0_520_4)">
<path d="M49.2501 90.25V79.5H45.6667C43.6959 79.5 42.0093 78.7989 40.6071 77.3966C39.2024 75.9919 38.5001 74.3042 38.5001 72.3333V65.1667H34.9167C33.4834 65.1667 32.4538 64.5694 31.8279 63.375C31.1996 62.1806 31.2139 60.9861 31.8709 59.7917L38.948 47.25C39.4257 41.2778 42.0535 36.2014 46.8313 32.0208C51.6091 27.8403 57.1931 25.75 63.5834 25.75C70.5112 25.75 76.4237 28.1986 81.3209 33.0958C86.2181 37.9931 88.6667 43.9056 88.6667 50.8333C88.6667 55.9097 87.3385 60.4486 84.6821 64.45C82.0232 68.4514 78.5737 71.4972 74.3334 73.5875V90.25H49.2501ZM56.4167 83.0833H67.1667V68.9292L70.3917 67.4958C73.6167 66.0625 76.2744 63.8671 78.3646 60.9097C80.4549 57.9546 81.5001 54.5958 81.5001 50.8333C81.5001 45.8764 79.7538 41.6516 76.2612 38.1591C72.7663 34.6641 68.5403 32.9167 63.5834 32.9167C58.8056 32.9167 54.6991 34.5148 51.2639 37.7112C47.8311 40.9051 45.9653 45.0104 45.6667 50.0271L41.098 58H45.6667V72.3333H56.4167V83.0833ZM60.0001 65.1667H67.1667L67.7042 60.6875C68.182 60.5083 68.6001 60.3136 68.9584 60.1034C69.3167 59.8956 69.6751 59.6125 70.0334 59.2542L74.1542 61.0458L77.7376 54.9542L74.1542 52.2667C74.2737 51.7889 74.3334 51.3111 74.3334 50.8333C74.3334 50.3556 74.2737 49.8778 74.1542 49.4L77.7376 46.7125L74.1542 40.6208L70.0334 42.4125C69.6751 42.0542 69.3167 41.7699 68.9584 41.5597C68.6001 41.3518 68.182 41.1583 67.7042 40.9792L67.1667 36.5H60.0001L59.4626 40.9792C58.9848 41.1583 58.5667 41.3518 58.2084 41.5597C57.8501 41.7699 57.4917 42.0542 57.1334 42.4125L53.0126 40.6208L49.4292 46.7125L53.0126 49.4C52.8931 49.8778 52.8334 50.3556 52.8334 50.8333C52.8334 51.3111 52.8931 51.7889 53.0126 52.2667L49.4292 54.9542L53.0126 61.0458L57.1334 59.2542C57.4917 59.6125 57.8501 59.8956 58.2084 60.1034C58.5667 60.3136 58.9848 60.5083 59.4626 60.6875L60.0001 65.1667ZM63.5834 56.2083C62.0306 56.2083 60.7466 55.7007 59.7313 54.6854C58.716 53.6701 58.2084 52.3861 58.2084 50.8333C58.2084 49.2806 58.716 47.9965 59.7313 46.9813C60.7466 45.966 62.0306 45.4583 63.5834 45.4583C65.1362 45.4583 66.4202 45.966 67.4355 46.9813C68.4507 47.9965 68.9584 49.2806 68.9584 50.8333C68.9584 52.3861 68.4507 53.6701 67.4355 54.6854C66.4202 55.7007 65.1362 56.2083 63.5834 56.2083Z" fill="white"/>
</g>
<defs>
<filter id="filter0_d_520_4" x="0" y="0" width="124" height="124" filterUnits="userSpaceOnUse" color-interpolation-filters="sRGB">
<feFlood flood-opacity="0" result="BackgroundImageFix"/>
<feColorMatrix in="SourceAlpha" type="matrix" values="0 0 0 0 0 0 0 0 0 0 0 0 0 0 0 0 0 0 127 0" result="hardAlpha"/>
<feOffset dy="5"/>
<feGaussianBlur stdDeviation="3"/>
<feComposite in2="hardAlpha" operator="out"/>
<feColorMatrix type="matrix" values="0 0 0 0 0 0 0 0 0 0 0 0 0 0 0 0 0 0 0.1 0"/>
<feBlend mode="normal" in2="BackgroundImageFix" result="effect1_dropShadow_520_4"/>
<feBlend mode="normal" in="SourceGraphic" in2="effect1_dropShadow_520_4" result="shape"/>
</filter>
</defs>
</svg>
