<svg width="124" height="124" viewBox="0 0 124 124" fill="none" xmlns="http://www.w3.org/2000/svg">
<g filter="url(#filter0_d_520_2)">
<circle cx="62" cy="57" r="56" fill="#469FB8"/>
</g>
<mask id="mask0_520_2" style="mask-type:alpha" maskUnits="userSpaceOnUse" x="18" y="17" width="86" height="86">
<rect x="18" y="17" width="86" height="86" fill="#D9D9D9"/>
</mask>
<g mask="url(#mask0_520_2)">
<path d="M68.1673 52.4752V46.3835C70.1382 45.5474 72.1544 44.9203 74.216 44.5022C76.2752 44.0842 78.4395 43.8752 80.709 43.8752C82.2618 43.8752 83.7847 43.9946 85.2777 44.2335C86.7708 44.4724 88.234 44.771 89.6673 45.1293V50.8627C88.234 50.3252 86.7863 49.9226 85.3243 49.6551C83.8599 49.3851 82.3215 49.2502 80.709 49.2502C78.4395 49.2502 76.2597 49.5344 74.1694 50.103C72.0791 50.6692 70.0784 51.4599 68.1673 52.4752ZM68.1673 72.1835V66.0918C70.1382 65.2557 72.1544 64.6286 74.216 64.2106C76.2752 63.7925 78.4395 63.5835 80.709 63.5835C82.2618 63.5835 83.7847 63.7029 85.2777 63.9418C86.7708 64.1807 88.234 64.4793 89.6673 64.8377V70.571C88.234 70.0335 86.7863 69.631 85.3243 69.3634C83.8599 69.0935 82.3215 68.9585 80.709 68.9585C78.4395 68.9585 76.2597 69.2272 74.1694 69.7647C72.0791 70.3022 70.0784 71.1085 68.1673 72.1835ZM68.1673 62.3293V56.2377C70.1382 55.4016 72.1544 54.7745 74.216 54.3564C76.2752 53.9384 78.4395 53.7293 80.709 53.7293C82.2618 53.7293 83.7847 53.8488 85.2777 54.0877C86.7708 54.3266 88.234 54.6252 89.6673 54.9835V60.7168C88.234 60.1793 86.7863 59.7768 85.3243 59.5092C83.8599 59.2393 82.3215 59.1043 80.709 59.1043C78.4395 59.1043 76.2597 59.3886 74.1694 59.9572C72.0791 60.5233 70.0784 61.314 68.1673 62.3293ZM41.2923 74.3335C44.0993 74.3335 46.8322 74.6464 49.491 75.2723C52.1474 75.9006 54.7895 76.8418 57.4173 78.096V42.8002C54.9687 41.3668 52.3708 40.2918 49.6236 39.5752C46.8763 38.8585 44.0993 38.5002 41.2923 38.5002C39.1423 38.5002 37.0078 38.7092 34.8889 39.1272C32.7676 39.5453 30.7215 40.1724 28.7507 41.0085V76.4835C30.8409 75.7668 32.9169 75.2293 34.9785 74.871C37.0377 74.5127 39.1423 74.3335 41.2923 74.3335ZM64.584 78.096C67.2118 76.8418 69.8551 75.9006 72.5139 75.2723C75.1703 74.6464 77.902 74.3335 80.709 74.3335C82.859 74.3335 84.9648 74.5127 87.0264 74.871C89.0856 75.2293 91.1604 75.7668 93.2507 76.4835V41.0085C91.2798 40.1724 89.2349 39.5453 87.116 39.1272C84.9947 38.7092 82.859 38.5002 80.709 38.5002C77.902 38.5002 75.125 38.8585 72.3777 39.5752C69.6305 40.2918 67.0326 41.3668 64.584 42.8002V78.096ZM61.0007 88.6668C58.134 86.3974 55.0284 84.6356 51.684 83.3814C48.3395 82.1272 44.8757 81.5002 41.2923 81.5002C38.784 81.5002 36.321 81.8286 33.9035 82.4856C31.4835 83.1425 29.1687 84.0682 26.959 85.2627C25.7048 85.9196 24.496 85.8897 23.3327 85.1731C22.1669 84.4564 21.584 83.4113 21.584 82.0377V38.8585C21.584 38.2016 21.7488 37.5745 22.0785 36.9772C22.4058 36.38 22.8979 35.9321 23.5548 35.6335C26.302 34.2002 29.1687 33.1252 32.1548 32.4085C35.1409 31.6918 38.1868 31.3335 41.2923 31.3335C44.7562 31.3335 48.146 31.7814 51.4618 32.6772C54.7752 33.5731 57.9548 34.9168 61.0007 36.7085C64.0465 34.9168 67.2273 33.5731 70.5431 32.6772C73.8565 31.7814 77.2451 31.3335 80.709 31.3335C83.8145 31.3335 86.8604 31.6918 89.8465 32.4085C92.8326 33.1252 95.6993 34.2002 98.4465 35.6335C99.1034 35.9321 99.5967 36.38 99.9264 36.9772C100.254 37.5745 100.417 38.2016 100.417 38.8585V82.0377C100.417 83.4113 99.8356 84.4564 98.6722 85.1731C97.5065 85.8897 96.2965 85.9196 95.0423 85.2627C92.8326 84.0682 90.5178 83.1425 88.0978 82.4856C85.6803 81.8286 83.2173 81.5002 80.709 81.5002C77.1257 81.5002 73.6618 82.1272 70.3173 83.3814C66.9729 84.6356 63.8673 86.3974 61.0007 88.6668Z" fill="white"/>
</g>
<defs>
<filter id="filter0_d_520_2" x="0" y="0" width="124" height="124" filterUnits="userSpaceOnUse" color-interpolation-filters="sRGB">
<feFlood flood-opacity="0" result="BackgroundImageFix"/>
<feColorMatrix in="SourceAlpha" type="matrix" values="0 0 0 0 0 0 0 0 0 0 0 0 0 0 0 0 0 0 127 0" result="hardAlpha"/>
<feOffset dy="5"/>
<feGaussianBlur stdDeviation="3"/>
<feComposite in2="hardAlpha" operator="out"/>
<feColorMatrix type="matrix" values="0 0 0 0 0 0 0 0 0 0 0 0 0 0 0 0 0 0 0.1 0"/>
<feBlend mode="normal" in2="BackgroundImageFix" result="effect1_dropShadow_520_2"/>
<feBlend mode="normal" in="SourceGraphic" in2="effect1_dropShadow_520_2" result="shape"/>
</filter>
</defs>
</svg>
